<?xml version="1.0" standalone="no"?>
<!DOCTYPE svg PUBLIC "-//W3C//DTD SVG 20010904//EN"
 "http://www.w3.org/TR/2001/REC-SVG-20010904/DTD/svg10.dtd">
<svg version="1.0" xmlns="http://www.w3.org/2000/svg"
 width="500.000000pt" height="500.000000pt" viewBox="0 0 500.000000 500.000000"
 preserveAspectRatio="xMidYMid meet">

<g transform="translate(0.000000,500.000000) scale(0.100000,-0.100000)"
fill="#000000" stroke="none">
<path d="M0 2500 l0 -2500 2500 0 2500 0 0 2500 0 2500 -2500 0 -2500 0 0
-2500z m2731 1620 c137 -24 295 -72 291 -88 -2 -10 -528 -760 -937 -1337 -51
-71 -98 -140 -106 -152 -8 -13 -16 -23 -19 -23 -3 0 -23 26 -44 58 -22 31 -99
143 -171 247 -73 105 -241 348 -375 540 -134 193 -307 443 -386 556 -79 114
-144 210 -144 213 0 3 400 6 889 6 841 0 894 -1 1002 -20z m536 -177 c258
-132 471 -319 623 -547 429 -640 359 -1483 -168 -2038 -238 -250 -526 -410
-859 -477 -98 -20 -132 -21 -1017 -21 -504 0 -916 3 -916 6 0 9 1030 1496
1409 2034 373 530 585 832 661 940 127 182 116 170 150 159 16 -6 69 -31 117
-56z"/>
</g>
</svg>
